<?xml version="1.0" encoding="utf-8"?>
<!-- Generator: Adobe Illustrator 15.0.0, SVG Export Plug-In . SVG Version: 6.00 Build 0)  -->
<!DOCTYPE svg PUBLIC "-//W3C//DTD SVG 1.1//EN" "http://www.w3.org/Graphics/SVG/1.1/DTD/svg11.dtd">
<svg version="1.1" id="Layer_1" xmlns="http://www.w3.org/2000/svg" xmlns:xlink="http://www.w3.org/1999/xlink" x="0px" y="0px"
	 width="410px" height="110px" viewBox="0 0 410 110" enable-background="new 0 0 410 110" xml:space="preserve">
<g>
	<path fill="#BC3B4B" d="M229.269,16.347c10.184,35.197,42.628,60.942,81.107,60.942s70.925-25.745,81.108-60.942H229.269z"/>
	<path fill="#525254" d="M373.062,95.574c0,5.767-4.679,10.445-10.446,10.445c-5.771,0-10.45-4.679-10.45-10.445
		c0-5.771,4.679-10.449,10.45-10.449C368.383,85.125,373.062,89.803,373.062,95.574z"/>
	<circle fill="#525254" cx="251.174" cy="95.574" r="10.448"/>
	<polyline fill="#525254" points="362.615,106.02 328.369,106.02 360.875,101.088 	"/>
	<polyline fill="#525254" points="251.755,106.02 217.512,106.02 250.017,101.088 	"/>
	<g>
		<path fill="#525254" d="M1.412,64.836L6.639,36.51c0.927-4.89,1.517-9.189,2.023-12.732h8.514l-0.927,7.168h0.167
			c3.795-5.482,8.938-8.095,14.333-8.095c6.407,0,9.273,4.13,9.61,8.432c3.709-5.565,8.852-8.346,14.585-8.432
			c5.563,0,9.947,3.626,9.947,10.959c0,1.77-0.334,4.807-0.671,6.997l-4.469,24.029h-9.527l4.214-22.93
			c0.337-1.603,0.59-3.543,0.59-5.146c0-3.54-1.434-5.9-4.974-5.9c-4.553,0-9.526,5.649-11.126,14.333l-3.626,19.643h-9.526
			l4.469-23.27c0.251-1.686,0.504-3.286,0.504-4.806c0-3.034-0.927-5.9-4.973-5.9c-4.553,0-9.78,6.24-11.297,14.585l-3.541,19.391
			H1.412z"/>
		<path fill="#525254" d="M101.148,62.476c-4.047,2.107-9.529,3.287-14.5,3.287c-11.382,0-16.862-6.999-16.862-17.029
			c0-12.393,9.104-25.882,23.269-25.882c8.093,0,13.234,4.636,13.234,11.549c0,10.54-11.043,13.911-26.891,13.572
			c-0.171,1.435,0.167,4.218,1.094,5.817c1.603,2.783,4.553,4.216,8.43,4.216c4.639,0,8.347-1.179,11.299-2.696L101.148,62.476z
			 M91.792,30.184c-6.156,0-10.203,5.482-11.385,10.456c10.119,0.086,16.611-1.266,16.611-6.24
			C97.018,31.788,94.909,30.184,91.792,30.184z"/>
		<path fill="#525254" d="M107.641,64.836l11.38-59.855h9.864l-11.466,59.855H107.641z"/>
		<path fill="#525254" d="M168.425,39.797c0,13.993-9.696,25.966-23.689,25.966c-10.37,0-16.776-7.166-16.776-16.945
			c0-13.911,9.693-25.966,23.689-25.966C162.692,22.851,168.425,30.775,168.425,39.797z M138.076,48.563
			c0,5.649,2.949,9.609,8.009,9.609c7.334,0,12.222-10.113,12.222-18.292c0-4.214-1.938-9.44-7.838-9.44
			C142.629,30.44,138.076,40.893,138.076,48.563z"/>
		<path fill="#525254" d="M171.041,64.836l5.312-28.326c1.011-4.89,1.601-9.189,2.107-12.732h8.769l-0.929,7.336h0.169
			c3.791-5.48,9.02-8.263,14.753-8.263c5.901,0,10.453,3.541,10.453,11.298c0,1.854-0.336,4.72-0.759,6.744l-4.467,23.943h-9.867
			l4.386-23.185c0.253-1.517,0.507-3.288,0.507-4.89c0-3.455-1.267-5.9-5.144-5.9c-4.47,0-10.202,5.396-11.972,15.006l-3.54,18.97
			H171.041z"/>
	</g>
	<path fill="#FFFFFF" d="M272.656,63.318c-2.444,1.182-6.575,2.36-11.802,2.36c-10.285,0-16.605-6.576-16.605-16.355
		c0-14.333,10.873-26.386,26.047-26.386c3.627,0,6.83,0.841,8.432,1.517l-2.529,7.673c-1.517-0.676-3.457-1.266-6.239-1.266
		c-9.443,0-15.427,8.683-15.427,17.282c0,6.153,3.539,9.61,9.021,9.61c3.793,0,6.659-1.011,8.684-1.939L272.656,63.318z"/>
	<path fill="#FFFFFF" d="M303.853,64.836c0-2.445,0.338-5.733,0.674-9.19h-0.166c-4.047,7.504-9.528,10.117-14.756,10.117
		c-7.333,0-12.14-5.732-12.14-13.996c0-13.993,9.78-28.916,28.916-28.916c4.469,0,9.275,0.844,12.479,1.855l-4.299,21.413
		c-1.183,6.071-1.856,13.825-1.688,18.717H303.853z M307.815,30.86c-1.013-0.253-2.276-0.42-4.046-0.42
		c-9.02,0-16.103,10.2-16.103,19.556c0,4.3,1.6,7.844,5.902,7.844c4.635,0,10.2-5.733,12.14-16.189L307.815,30.86z"/>
	<path fill="#FFFFFF" d="M320.885,64.836l4.804-25.292c1.098-5.816,1.687-12.14,2.109-15.766h8.514
		c-0.253,2.785-0.506,5.649-0.927,8.6h0.253c2.781-5.479,7.248-9.526,12.813-9.526c0.759,0,1.518,0.086,2.194,0.086l-1.94,9.61
		c-0.508-0.083-1.181-0.083-1.854-0.083c-6.996,0-11.466,7.08-13.069,15.848l-3.116,16.524H320.885z"/>
	<path fill="#FFFFFF" d="M371.465,13.241l-1.938,10.537h9.19l-1.518,7.589h-9.189l-3.203,16.523c-0.423,1.939-0.76,4.047-0.76,5.817
		c0,2.276,1.011,3.709,3.623,3.709c1.181,0,2.363-0.084,3.374-0.253l-0.928,7.673c-1.433,0.59-4.047,0.843-6.406,0.843
		c-6.747,0-9.696-3.709-9.696-8.429c0-2.28,0.254-4.554,0.843-7.591l3.543-18.292h-5.482l1.434-7.589h5.482l1.517-7.67
		L371.465,13.241z"/>
	<path fill="#3A5C30" d="M396.915,16.347c-10.331,38.118-45.151,66.167-86.539,66.167c-41.389,0-76.209-28.049-86.54-66.167h-11.672
		c10.597,44.435,50.533,77.484,98.212,77.484c47.678,0,87.614-33.05,98.212-77.484H396.915z"/>
	<polygon fill="#DADBDC" points="233.47,70.903 66.311,70.903 243.918,77.87 	"/>
</g>
</svg>
