<?xml version="1.0" encoding="UTF-8" standalone="no"?>
<svg width="500px" height="500px" viewBox="0 0 500 500" version="1.1" xmlns="http://www.w3.org/2000/svg" xmlns:xlink="http://www.w3.org/1999/xlink" xmlns:sketch="http://www.bohemiancoding.com/sketch/ns">
    <!-- Generator: Sketch 3.4.4 (17249) - http://www.bohemiancoding.com/sketch -->
    <title>Group</title>
    <desc>Created with Sketch.</desc>
    <defs></defs>
    <g id="Page-1" stroke="none" stroke-width="1" fill="none" fill-rule="evenodd" sketch:type="MSPage">
        <g id="Group" sketch:type="MSLayerGroup" transform="translate(1.000000, 0.000000)">
            <path fill="#CFD8DC" d="M26.75 191.25h446.5v223.248H26.75V191.25z"/>
            <path fill="#B0BEC5" d="M26.75 414.5h446.5v47H26.75v-47z"/>
            <path fill="#455A64" d="M285.25 250h141v211.5h-141V250z"/>
            <path fill="#E3F2FD" d="M73.75 250h164.5v129.25H73.75V250z"/>
            <path fill="#1E88E5" d="M85.5 261.75h141V367.5h-141V261.75z"/>
            <path fill="#90A4AE" d="M396.876 361.623c-3.526 0-5.876 2.354-5.876 5.877V391c0 3.525 2.35 5.876 5.876 5.876 3.523 0 5.874-2.354 5.874-5.876v-23.5c0-3.525-2.353-5.874-5.874-5.874v-.003z"/>
            <g transform="scale(7.29167)" fill="#558B2F">
                <circle cx="34.286" cy="26.229" r="4.834"/>
                <circle cx="53.623" cy="26.229" r="4.834"/>
                <circle cx="14.949" cy="26.229" r="4.834"/>
            </g>
            <path fill="#7CB342" d="M438 38.5H62c-12.924 0-23.5 10.576-23.5 23.5v35.25h423V62c0-12.924-10.574-23.5-23.5-23.5zM214.75 97.25h70.5v94h-70.5v-94zm188 0h-58.753l11.753 94h70.5l-23.5-94zm-305.5 0h58.752l-11.752 94h-70.5l23.5-94z"/>
            <g fill="#BC3B4B">
                <circle cx="320.5" cy="191.25" r="35.25"/>
                <path d="M496.75 191.25c0 19.976-15.276 35.25-35.25 35.25-19.976 0-35.25-15.276-35.25-35.25 0-19.975 15.276-35.25 35.25-35.25l35.25 35.25z"/>
                <circle cx="179.5" cy="191.25" r="35.25"/>
                <path d="M3.25 191.25c0 19.976 15.276 35.25 35.25 35.25 19.975 0 35.25-15.276 35.25-35.25 0-19.975-15.276-35.25-35.25-35.25L3.25 191.25z"/>
            </g>
            <path fill="#BA6876" d="M344 97.25h-58.75v94h70.5l-11.75-94zm117.5 0h-58.75l23.5 94h70.5l-35.25-94zm-305.5 0h58.75v94h-70.5l11.75-94zm-117.5 0h58.75l-23.5 94H3.25l35.25-94z"/>
        </g>
    </g>
</svg>
